:SAMPLES-PER-SECOND 30
:FULLY-SPECIFIED
:DEGREES
414
root  -0.781791 39.2493 -6.51202 178.321 -87.3572 176.647
RightUpLeg  6.75067 -7.47699 -4.93119
RightLeg  29.3395 1.33884 0.571313
RightFoot  -16.5817 0.200325 6.79489
RightToes  0.00048216 0.542163 -0.142577
Spine  5.32624 -0.43911 5.79017
Spine1  14.6549 0.994007 -3.72204
HEad  -21.0328 -13.6163 0.0749263
LeftShoulder1  9.53305 -14.3743 -46.5197
LeftArm  -17.2485 4.55478 -25.353
LeftForeArm  39.8197 -44.8177 -8.37423
LeftHand  -0.25398 0.0180481 5.50724
RightShoulder  6.61699 11.2272 38.8375
RightArm  4.61704 8.29997 41.8913
RightForeArm  22.4417 13.9557 6.69124
RightHand  -0.200447 -2.37603 -7.12081
LeftUpLeg  -14.5221 6.46956 2.05336
LeftLeg  0.161049 13.5572 -7.75864
LeftFoot  19.9532 -2.64002 8.98561
LeftToes  1.06246e-005 4.65855e-005 -8.18503e-006
415
root  0.592174 39.0246 -6.75271 149.747 -87.3924 -154.663
RightUpLeg  5.64523 -9.85017 -3.02417
RightLeg  27.9804 1.40217 0.569505
RightFoot  -19.3183 0.125578 3.61257
RightToes  0.00048216 0.542163 -0.142577
Spine  6.08382 -0.53642 7.5088
Spine1  14.404 0.771814 -3.1993
HEad  -22.666 -13.4936 0.36646
LeftShoulder1  9.41308 -14.3505 -45.9798
LeftArm  -17.7529 3.51191 -26.1591
LeftForeArm  41.3405 -45.3928 -8.47291
LeftHand  -0.25398 0.0180481 5.50724
RightShoulder  6.56663 11.1291 38.7958
RightArm  5.48121 9.43899 41.4067
RightForeArm  18.2365 15.2999 6.36445
RightHand  -0.355125 -1.13215 -9.45204
LeftUpLeg  -15.8352 6.2479 3.96635
LeftLeg  -2.25375 12.1343 -7.81928
LeftFoot  24.3314 -1.51546 4.32641
LeftToes  1.06246e-005 4.65855e-005 -8.18503e-006
416
root  1.99909 38.8498 -6.98277 127.759 -86.7912 -132.767
RightUpLeg  3.43958 -11.2024 -0.849947
RightLeg  28.3143 0.912609 0.28822
RightFoot  -20.2405 -0.0407121 1.21839
RightToes  0.00048216 0.542163 -0.142577
Spine  7.41503 -0.525004 8.59443
Spine1  14.1231 0.494643 -2.08916
HEad  -24.8684 -13.26 1.10068
LeftShoulder1  9.31713 -14.3411 -45.5194
LeftArm  -18.2925 2.99548 -27.1388
LeftForeArm  42.6924 -45.5174 -8.42811
LeftHand  -0.25398 0.0180481 5.50724
RightShoulder  6.4378 11.0111 38.2958
RightArm  7.79019 10.0175 40.9583
RightForeArm  11.8269 17.4274 5.88109
RightHand  -0.595558 0.424103 -11.9696
LeftUpLeg  -16.8105 6.84887 5.97165
LeftLeg  -3.78038 8.25618 -7.47724
LeftFoot  26.713 1.53624 -5.03703
LeftToes  1.06246e-005 4.65855e-005 -8.18503e-006
417
root  3.37932 38.7966 -7.18914 118.368 -86.7234 -123.753
RightUpLeg  1.16912 -11.9608 0.462228
RightLeg  29.0972 0.161167 -0.148114
RightFoot  -20.2049 -0.155364 -0.250032
RightToes  0.00048216 0.542163 -0.142577
Spine  9.18886 -0.705502 8.1123
Spine1  13.9443 -0.0800271 -0.667865
HEad  -26.9944 -12.5312 2.37471
LeftShoulder1  9.22625 -14.2553 -45.2849
LeftArm  -18.4022 3.09819 -27.668
LeftForeArm  43.3417 -45.242 -8.29192
LeftHand  -0.25398 0.0180481 5.50724
RightShoulder  6.36298 10.9979 37.8383
RightArm  10.4052 10.1345 40.4495
RightForeArm  6.27095 19.7197 5.32184
RightHand  -0.769932 1.31429 -13.4853
LeftUpLeg  -17.8197 7.1506 6.75925
LeftLeg  -2.07408 3.77281 -6.3635
LeftFoot  23.6744 3.63449 -11.9755
LeftToes  1.06246e-005 4.65855e-005 -8.18503e-006
418
root  4.69504 38.917 -7.34519 110.234 -87.4354 -115.985
RightUpLeg  -0.677574 -12.9277 0.629278
RightLeg  29.095 -0.0518919 -0.277138
RightFoot  -18.9997 -0.208726 -1.20362
RightToes  0.00048216 0.542163 -0.142577
Spine  10.8724 -1.03444 6.76434
Spine1  13.905 -0.722159 0.406775
HEad  -28.5871 -11.7036 3.93661
LeftShoulder1  9.17862 -14.1608 -45.2924
LeftArm  -17.5978 3.26462 -27.7092
LeftForeArm  42.784 -43.7106 -7.82684
LeftHand  -0.25398 0.0180481 5.50724
RightShoulder  6.35028 10.997 37.7564
RightArm  11.4331 9.329 39.6616
RightForeArm  3.90523 22.0715 4.86019
RightHand  -0.802627 1.38844 -13.8788
LeftUpLeg  -19.2546 8.60943 5.09113
LeftLeg  3.98098 0.330572 -3.97582
LeftFoot  16.154 2.60659 -10.827
LeftToes  1.06246e-005 4.65855e-005 -8.18503e-006
419
root  5.88684 39.1044 -7.41203 104.921 -87.986 -110.781
RightUpLeg  -2.3397 -14.1148 0.474524
RightLeg  28.4534 0.537661 0.0706799
RightFoot  -16.8738 -0.210653 -2.00485
RightToes  0.00048216 0.542163 -0.142577
Spine  11.8909 -1.12485 6.16139
Spine1  13.6985 -0.955731 1.03773
HEad  -29.3497 -11.397 5.14985
LeftShoulder1  9.22506 -14.1485 -45.5628
LeftArm  -16.0034 3.24471 -27.7001
LeftForeArm  41.1668 -40.3668 -6.9088
LeftHand  -0.25398 0.0180481 5.50724
RightShoulder  6.27013 10.8256 37.7221
RightArm  9.98309 7.15589 38.6728
RightForeArm  4.34817 24.2049 4.91616
RightHand  -0.827442 1.44131 -14.187
LeftUpLeg  -20.4522 11.4924 2.42646
LeftLeg  12.4452 0.363601 -0.246751
LeftFoot  8.68365 0.908083 -5.5257
LeftToes  1.06246e-005 4.65855e-005 -8.18503e-006
420
root  6.97653 39.3213 -7.40439 112.906 -88.1223 -118.451
RightUpLeg  -4.06776 -15.1739 0.497395
RightLeg  27.2 1.56952 0.629205
RightFoot  -14.3008 -0.167645 -2.75414
RightToes  0.00048216 0.542163 -0.142577
Spine  12.127 -0.961812 6.26622
Spine1  13.3173 -0.806469 1.44521
HEad  -29.2208 -11.4691 5.48321
LeftShoulder1  9.30857 -14.1255 -46.052
LeftArm  -14.2703 3.45364 -27.9502
LeftForeArm  39.0771 -35.8871 -5.8018
LeftHand  -0.25398 0.0180481 5.50724
RightShoulder  6.09956 10.5164 37.4798
RightArm  8.34333 4.14132 37.7992
RightForeArm  4.69803 25.4987 5.22251
RightHand  -0.909741 1.78507 -14.8652
LeftUpLeg  -20.508 10.4027 2.45079
LeftLeg  20.8912 6.27603 3.04698
LeftFoot  4.33656 0.460471 -3.63436
LeftToes  1.06246e-005 4.65855e-005 -8.18503e-006
